<svg xmlns="http://www.w3.org/2000/svg" version="1.1" xmlns:xlink="http://www.w3.org/1999/xlink" xmlns:svgjs="http://svgjs.dev/svgjs" width="1500" height="1500" viewBox="0 0 1500 1500"><g transform="matrix(1,0,0,1,-0.21332335329316265,-0.21332335329350371)"><svg viewBox="0 0 334 334" data-background-color="#ffffff" preserveAspectRatio="xMidYMid meet" height="1500" width="1500" xmlns="http://www.w3.org/2000/svg" xmlns:xlink="http://www.w3.org/1999/xlink"><g id="tight-bounds" transform="matrix(1,0,0,1,0.04749999999998522,0.04750000000001364)"><svg viewBox="0 0 333.90454557049503 333.90454557049503" height="333.90454557049503" width="333.90454557049503"><g><svg></svg></g><g><svg viewBox="0 0 333.90454557049503 333.90454557049503" height="333.90454557049503" width="333.90454557049503"><g><path d="M0 166.952c0-92.205 74.747-166.952 166.952-166.952 92.205 0 166.952 74.747 166.953 166.952 0 92.205-74.747 166.952-166.953 166.953-92.205 0-166.952-74.747-166.952-166.953zM166.952 327.306c88.561 0 160.354-71.793 160.354-160.354 0-88.561-71.793-160.354-160.354-160.354-88.561 0-160.354 71.793-160.354 160.354 0 88.561 71.793 160.354 160.354 160.354z" data-fill-palette-color="tertiary" fill="#89939e" stroke="transparent"></path><ellipse rx="160.27418187383762" ry="160.27418187383762" cx="166.95227278524752" cy="166.95227278524752" fill="#89939e" stroke="transparent" stroke-width="0" fill-opacity="1" data-fill-palette-color="tertiary"></ellipse></g><g transform="matrix(1,0,0,1,67.95931220223464,71.17305217166896)"><svg viewBox="0 0 197.98592116602575 191.55844122715712" height="191.55844122715712" width="197.98592116602575"><g><svg viewBox="0 0 197.98592116602575 191.55844122715712" height="191.55844122715712" width="197.98592116602575"><g><svg viewBox="0 0 213.1584412271571 206.2383956162414" height="191.55844122715712" width="197.98592116602575"><g transform="matrix(1,0,0,1,0,127.46360236492195)"><svg viewBox="0 0 213.1584412271571 78.77479325131944" height="78.77479325131944" width="213.1584412271571"><g id="textblocktransform"><svg viewBox="0 0 213.1584412271571 78.77479325131944" height="78.77479325131944" width="213.1584412271571" id="textblock"><g><svg viewBox="0 0 213.1584412271571 78.77479325131944" height="78.77479325131944" width="213.1584412271571"><g transform="matrix(1,0,0,1,0,0)"><svg width="213.1584412271571" viewBox="0 -46 201.02 74.29999999999998" height="78.77479325131944" data-palette-color="#ffffff"><path d="M21.45-16.35L21.45-16.35Q21.85-16.35 22.23-15.58 22.6-14.8 22.6-14.1L22.6-14.1Q22.6-13.5 22.43-12.9 22.25-12.3 22.1-12L22.1-12 21.9-11.65Q19.45-6.9 14.63-2.9 9.8 1.1 4.95 1.1L4.95 1.1Q2.4 1.1 1.2-0.73 0-2.55 0-5.4L0-5.4Q0-10.4 2.88-15.63 5.75-20.85 10.15-25.15L10.15-25.15Q8.25-25.35 6.6-26.6 4.95-27.85 4.95-29.65L4.95-29.65Q4.95-32.4 9.45-35.1 13.95-37.8 20.6-37.8L20.6-37.8Q22.7-37.8 25.93-37.27 29.15-36.75 30.9-36.75L30.9-36.75Q33.7-36.75 34.9-37.65L34.9-37.65Q35.1-37.7 35.25-37.7L35.25-37.7Q35.5-37.7 35.5-37.5 35.5-37.3 35.3-36.95L35.3-36.95Q34.3-35.35 32.6-34.35 30.9-33.35 28.85-33.35L28.85-33.35Q26.65-33.35 22.38-34.5 18.1-35.65 15.75-35.65L15.75-35.65Q13.1-35.65 10.7-34.15 8.3-32.65 8.3-30.05L8.3-30.05Q8.3-28.95 8.9-27.9 9.5-26.85 10.1-26.35L10.1-26.35 10.7-25.85 10.8-25.75Q16.65-31.3 21.3-32.35L21.3-32.35Q21.55-32.4 21.9-32.4L21.9-32.4Q22.4-32.4 22.4-32.1L22.4-32.1Q22.4-31.7 21.65-31.4L21.65-31.4Q20.25-30.85 17.65-28.55 15.05-26.25 12.15-22.88 9.25-19.5 7.13-14.83 5-10.15 5-5.8L5-5.8Q5-1.35 8.05-1.35L8.05-1.35Q10.25-1.35 12.38-2.78 14.5-4.2 16.13-6.5 17.75-8.8 18.95-11.15 20.15-13.5 20.95-15.9L20.95-15.9Q21.1-16.35 21.45-16.35ZM34.6-3.15L34.6-3.15Q30.45 0.65 28.9 0.65L28.9 0.65Q28.2 0.65 28.2-0.15L28.2-0.15Q28.2-1.15 29.07-3.2 29.95-5.25 30.85-6.8L30.85-6.8 31.75-8.35Q31.95-8.7 31.95-8.8 31.95-8.9 31.85-8.9L31.85-8.9Q31.65-8.9 31.1-8.35L31.1-8.35Q29.6-6.7 27.67-4.83 25.75-2.95 24.55-1.9L24.55-1.9 23.4-0.9Q21.45 0.6 20.4 0.6L20.4 0.6Q19.3 0.6 19.3-1.1L19.3-1.1Q19.3-1.95 19.77-3.7 20.25-5.45 20.5-6.05L20.5-6.05Q21.65-8.85 23.37-11.5 25.1-14.15 27.45-16.57 29.8-19 32.92-20.5 36.05-22 39.4-22L39.4-22Q42.2-22 42.2-21.15L42.2-21.15Q42.2-20.65 40.95-20.65L40.95-20.65Q36.35-20.65 32.32-16.73 28.3-12.8 25.8-7.7L25.8-7.7Q25.1-6.3 25.1-5.35L25.1-5.35Q25.1-4.8 25.45-4.8L25.45-4.8Q26.05-4.8 27-5.65L27-5.65Q27.6-6.2 28.62-7.1 29.65-8 31.95-10.55 34.25-13.1 35.6-15.3L35.6-15.3Q35.8-15.7 36.22-16.25 36.65-16.8 37.85-17.73 39.05-18.65 40.25-18.65L40.25-18.65Q40.9-18.65 40.9-18.3L40.9-18.3Q40.9-18.2 40.75-17.95L40.75-17.95Q40.55-17.55 39.62-15.95 38.7-14.35 37.9-12.93 37.1-11.5 36.2-9.83 35.3-8.15 34.77-6.95 34.25-5.75 34.25-5.35L34.25-5.35Q34.25-5.05 34.5-5.05L34.5-5.05Q35.25-5.05 38.15-7.95L38.15-7.95Q40.35-10.25 43.3-13.6L43.3-13.6Q43.45-13.75 43.55-13.75 43.65-13.75 43.65-13.55L43.65-13.55Q43.65-12.6 42.9-11.7L42.9-11.7Q38-6.25 34.6-3.15ZM50.34-5.7L50.34-5.7Q49.45-3.25 47.5-1.58 45.55 0.1 43.87 0.7 42.2 1.3 40.84 1.3L40.84 1.3Q37.2 1.3 37.2-1.55L37.2-1.55Q37.2-4.45 40.4-6.8L40.4-6.8Q41.9-7.9 43.65-8.25L43.65-8.25Q43.9-8.25 43.9-8.05L43.9-8.05Q43.9-7.95 43.8-7.85L43.8-7.85Q42.55-6.9 41.42-4.9 40.3-2.9 40.3-1.4 40.3 0.1 41.55 0.1L41.55 0.1Q42.55 0.1 43.52-0.73 44.5-1.55 45-2.4L45-2.4 45.5-3.2Q46.5-4.8 47.17-8.3 47.84-11.8 48.05-14.5L48.05-14.5 48.2-17.2Q48.2-17.6 48.05-17.6L48.05-17.6 47.84-17.5 42.9-11.7Q42.34-11.05 42.15-11.05L42.15-11.05Q41.9-11.05 41.9-11.4L41.9-11.4Q41.9-12.05 42.25-12.4L42.25-12.4 42.7-12.95Q48.4-19.35 49.2-20.7L49.2-20.7Q49.95-21.85 51.4-22.7L51.4-22.7Q52.8-23.5 54.7-23.5L54.7-23.5Q55.2-23.5 55.2-23.1L55.2-23.1Q55.2-22.85 54.8-22.65L54.8-22.65Q54.65-22.6 54.42-22.43 54.2-22.25 53.62-21.6 53.05-20.95 52.59-20.1 52.15-19.25 51.8-17.73 51.45-16.2 51.45-14.35L51.45-14.35Q51.45-8.6 50.34-5.7ZM60.89-7.55L60.89-7.55Q62.99-9.65 66.44-13.6L66.44-13.6Q66.59-13.75 66.69-13.75 66.79-13.75 66.79-13.55L66.79-13.55Q66.79-12.6 66.04-11.7L66.04-11.7Q62.34-7.6 59.49-4.85L59.49-4.85Q53.49 0.95 51.54 0.95L51.54 0.95Q50.84 0.95 50.84 0.05L50.84 0.05Q50.84-1 51.64-3.1 52.44-5.2 53.24-6.8L53.24-6.8 54.04-8.35Q55.19-10.4 57.84-15.35 60.49-20.3 62.97-24.7 65.44-29.1 67.64-32.65L67.64-32.65 63.69-32.65Q63.19-32.65 63.19-32.9 63.19-33.15 63.59-33.4 63.99-33.65 64.44-33.65L64.44-33.65Q65.54-33.65 68.29-33.7L68.29-33.7Q70.74-37.55 72.49-39.8L72.49-39.8Q74.04-41.75 74.64-41.75L74.64-41.75Q74.99-41.75 74.99-41.3L74.99-41.3Q74.99-40.25 73.09-36.8L73.09-36.8 71.39-33.7 76.54-33.7Q76.99-33.7 76.99-33.45L76.99-33.45Q76.99-32.65 75.54-32.65L75.54-32.65 70.84-32.65Q59.29-10.75 58.69-9.7L58.69-9.7Q56.59-5.85 56.59-4.7L56.59-4.7Q56.59-4.35 56.84-4.35L56.84-4.35Q57.54-4.35 60.89-7.55ZM75.44-16.95L75.44-16.95Q76.04-18.2 76.04-19.15L76.04-19.15Q76.04-19.95 75.54-19.95L75.54-19.95Q75.24-19.95 74.87-19.78 74.49-19.6 74.29-19.4L74.29-19.4 74.04-19.2Q72.49-17.85 70.17-14.28 67.84-10.7 67.84-9.7L67.84-9.7Q67.84-9.5 67.94-9.5L67.94-9.5Q68.24-9.5 69.27-10 70.29-10.5 72.22-12.35 74.14-14.2 75.44-16.95ZM73.19-5.5L73.19-5.5Q75.84-7.95 80.79-13.6L80.79-13.6Q80.94-13.75 81.04-13.75 81.14-13.75 81.14-13.55L81.14-13.55Q81.14-12.6 80.39-11.7L80.39-11.7Q76.69-7.6 73.84-4.85L73.84-4.85Q71.74-2.75 68.84-0.83 65.94 1.1 64.04 1.1L64.04 1.1Q61.74 1.1 61.74-2.1L61.74-2.1Q61.74-7.4 65.67-13.2 69.59-19 74.74-21.05L74.74-21.05Q76.89-21.95 78.64-21.95L78.64-21.95Q80.59-21.95 80.59-20.4L80.59-20.4Q80.59-17.5 76.49-13.75 72.39-10 67.29-8.05L67.29-8.05Q67.09-8 66.94-7.7L66.94-7.7Q66.19-5.65 66.19-4.05L66.19-4.05Q66.19-2.25 67.54-2.25L67.54-2.25Q69.69-2.25 73.19-5.5ZM105.69-20.7L105.69-20.7Q102.59-20.55 98.79-20.55L98.79-20.55 98.19-20.55Q91.14-7.75 89.79-3.2L89.79-3.2Q89.59-2.6 89.59-2.1L89.59-2.1Q89.59-0.6 92.24-0.6L92.24-0.6Q93.34-0.6 94.64-1.03 95.94-1.45 97.81-2.53 99.69-3.6 102.04-5.95 104.39-8.3 106.84-11.65L106.84-11.65Q107.14-12.2 107.74-12.2L107.74-12.2Q108.14-12.2 108.14-11.8L108.14-11.8Q108.14-11.7 108.04-11.4L108.04-11.4Q105.64-5.25 101.94-0.4L101.94-0.4Q101.64 0.3 100.44 0.5L100.44 0.5Q96.34 0.7 91.79 0.7L91.79 0.7Q86.59 0.7 83.39 0.35L83.39 0.35Q82.79 0.3 82.79-0.35L82.79-0.35Q82.79-0.75 82.99-1.15L82.99-1.15Q85.84-7.55 93.74-20.6L93.74-20.6 91.49-20.65Q90.84-20.65 90.84-21.05 90.84-21.45 91.26-21.78 91.69-22.1 92.14-22.1L92.14-22.1 94.69-22.1 100.74-31.8Q101.49-33.15 101.49-34.25L101.49-34.25Q101.49-35 101.16-35.55 100.84-36.1 100.49-36.3L100.49-36.3 100.14-36.5Q99.69-36.75 99.69-37.05L99.69-37.05Q99.69-37.25 99.86-37.4 100.04-37.55 100.24-37.6L100.24-37.6 100.44-37.65Q105.59-37.95 111.14-37.95L111.14-37.95Q115.74-37.95 118.54-37.7L118.54-37.7Q119.29-37.7 119.29-37.05L119.29-37.05Q119.29-36.9 119.14-36.5L119.14-36.5Q117.49-32.35 115.79-30L115.79-30Q115.54-29.75 115.24-29.75L115.24-29.75Q114.79-29.75 114.79-30.4L114.79-30.4Q115.04-31.35 115.04-32.45L115.04-32.45Q115.04-36.55 110.94-36.55L110.94-36.55 110.74-36.55Q108.19-36.55 107.09-35.15L107.09-35.15Q104.54-32 100.29-24.3L100.29-24.3Q99.79-23.45 99.04-22.15L99.04-22.15 106.54-22.15Q107.04-22.15 107.04-21.85 107.04-21.55 106.61-21.15 106.19-20.75 105.69-20.7ZM119.93-3.15L119.93-3.15Q116.38 0.25 115.18 0.25L115.18 0.25Q114.28 0.25 113.93-1.15 113.58-2.55 113.58-5.7L113.58-5.7Q113.58-7.35 113.78-10.75L113.78-10.75Q110.68-7.55 108.51-4.5 106.33-1.45 105.68 0L105.68 0 105.08 1.4Q104.78 2.35 104.33 2.35L104.33 2.35Q103.93 2.35 103.66 1.35 103.38 0.35 103.38-0.3L103.38-0.3Q103.38-0.9 103.53-1.38 103.68-1.85 103.83-2L103.83-2 103.98-2.2Q108.73-7.25 113.88-12.25L113.88-12.25Q114.28-16.85 114.28-17.35L114.28-17.35Q114.28-17.75 114.26-18.13 114.23-18.5 114.21-18.78 114.18-19.05 114.16-19.3 114.13-19.55 114.08-19.7 114.03-19.85 113.98-19.98 113.93-20.1 113.91-20.18 113.88-20.25 113.86-20.3 113.83-20.35 113.78-20.4L113.78-20.4Q113.68-20.5 113.68-20.6L113.68-20.6Q113.68-21.2 114.83-21.98 115.98-22.75 116.78-22.75 117.58-22.75 117.58-20.75L117.58-20.75Q117.58-19.05 117.38-15.55L117.38-15.55Q122.63-20.45 125.13-21.85L125.13-21.85Q126.33-22.45 126.73-22.45L126.73-22.45Q127.33-22.45 127.68-21.3 128.03-20.15 128.03-19.35L128.03-19.35Q128.03-19 127.78-18.95L127.78-18.95Q127.58-18.95 127.11-19.45 126.63-19.95 126.03-19.95L126.03-19.95Q125.03-19.95 123.61-19.15 122.18-18.35 121.23-17.55L121.23-17.55 120.28-16.75Q118.43-15.25 117.28-14.15L117.28-14.15Q117.13-11.9 117.13-9.7L117.13-9.7Q117.13-3.6 118.58-3.6L118.58-3.6Q119.33-3.6 123.48-7.95L123.48-7.95Q125.68-10.25 128.63-13.6L128.63-13.6Q128.78-13.75 128.88-13.75 128.98-13.75 128.98-13.55L128.98-13.55Q128.98-12.6 128.23-11.7L128.23-11.7Q123.88-6.85 119.93-3.15ZM127.78-5.4L125.73-1.8Q125.48-1.35 125.48-0.9L125.48-0.9Q125.48 0 126.88 0L126.88 0Q128.33 0 129.93-1.33 131.53-2.65 132.81-4.53 134.08-6.4 135.16-8.28 136.23-10.15 136.78-11.5L136.78-11.5 137.38-12.8Q138.68-16.05 138.68-17.55L138.68-17.55Q138.68-18.6 137.93-18.6L137.93-18.6Q137.48-18.6 137.03-18.3L137.03-18.3Q135.43-17.3 132.61-13.18 129.78-9.05 127.78-5.4L127.78-5.4ZM136.38-24.9L136.38-24.9Q136.73-24.9 136.73-24.5L136.73-24.5Q136.73-23.8 135.91-21.8 135.08-19.8 134.28-18.2L134.28-18.2 133.43-16.55Q133.38-16.45 133.38-16.35L133.38-16.35Q133.38-16.2 133.48-16.2 133.58-16.2 133.78-16.4L133.78-16.4Q133.93-16.65 134.23-17 134.53-17.35 135.43-18.32 136.33-19.3 137.16-20.03 137.98-20.75 139.06-21.35 140.13-21.95 140.98-21.95L140.98-21.95Q142.93-21.95 142.93-18.75L142.93-18.75Q142.93-16.15 141.38-12.35L141.38-12.35Q141.38-12.25 140.81-10.95 140.23-9.65 138.98-7.6 137.73-5.55 136.13-3.63 134.53-1.7 132.16-0.3 129.78 1.1 127.28 1.1L127.28 1.1Q126.58 1.1 125.98 0.93 125.38 0.75 125.08 0.58 124.78 0.4 124.68 0.4L124.68 0.4 124.33 0.6Q122.98 2.6 120.03 8 117.08 13.4 115.33 17.05L115.33 17.05Q115.08 17.5 114.68 18.25 114.28 19 113.13 20.95 111.98 22.9 110.96 24.38 109.93 25.85 108.71 27.08 107.48 28.3 106.63 28.3L106.63 28.3Q106.13 28.3 106.13 27.85L106.13 27.85Q106.13 26.5 109.06 20.93 111.98 15.35 114.93 10.4L114.93 10.4 117.88 5.5Q125.13-7.15 129.18-14.6L129.18-14.6Q129.28-14.8 129.48-15.18 129.68-15.55 130.28-16.63 130.88-17.7 131.43-18.68 131.98-19.65 132.73-20.83 133.48-22 134.13-22.88 134.78-23.75 135.38-24.33 135.98-24.9 136.38-24.9ZM154.13-24.35L154.13-24.35Q157.68-26.85 160.5-30.03 163.33-33.2 164.8-35.88 166.28-38.55 167.03-40.5 167.78-42.45 167.78-43.3L167.78-43.3Q167.78-43.8 167.43-43.8L167.43-43.8Q166.73-43.8 165.73-42.8L165.73-42.8Q163.83-40.9 161.43-37.3 159.03-33.7 157.55-31.13 156.08-28.55 153.73-24.25L153.73-24.25Q153.93-24.25 154.13-24.35ZM148.78-7.55L148.78-7.55Q150.88-9.65 154.33-13.6L154.33-13.6Q154.48-13.75 154.58-13.75 154.68-13.75 154.68-13.55L154.68-13.55Q154.68-12.6 153.93-11.7L153.93-11.7Q150.23-7.6 147.38-4.85L147.38-4.85Q141.13 1.05 139.43 1.05L139.43 1.05Q138.68 1.05 138.68 0L138.68 0Q138.68-0.55 138.8-1.2 138.93-1.85 139.23-2.63 139.53-3.4 139.75-3.93 139.98-4.45 140.4-5.43 140.83-6.4 140.98-6.75L140.98-6.75Q142.38-9.9 149.58-23.35L149.58-23.35Q159.43-41.3 167.68-45.4L167.68-45.4Q168.88-46 170.08-46L170.08-46Q171.48-46 171.48-44.7L171.48-44.7Q171.48-41.7 169.43-38.13 167.38-34.55 164.43-31.55 161.48-28.55 158.65-26.3 155.83-24.05 153.78-22.9L153.78-22.9Q153.48-22.8 153.23-22.45L153.23-22.45Q151.03-18.9 148.93-14.83 146.83-10.75 145.78-8.4L145.78-8.4 144.78-6.1Q144.53-5.35 144.53-5.1L144.53-5.1Q144.53-4.65 144.88-4.65L144.88-4.65Q145.88-4.65 148.78-7.55ZM171.43-17.6L171.43-17.6Q171.88-17.5 171.88-17.3L171.88-17.3Q171.88-17 171.48-16.6L171.48-16.6Q170.93-16.05 169.85-15.15 168.78-14.25 168.58-14.05L168.58-14.05 167.88-13.1Q166.83-10.15 164.65-6.98 162.48-3.8 159.35-1.4 156.23 1 153.38 1L153.38 1Q149.83 1 149.83-3.35L149.83-3.35Q149.83-7.2 152.33-11.68 154.83-16.15 158.8-19.33 162.78-22.5 166.63-22.5L166.63-22.5Q169.43-22.5 169.43-20.3L169.43-20.3Q169.43-19.1 168.23-17.05L168.23-17.05Q168.18-17 168.18-16.9 168.18-16.8 168.28-16.8L168.28-16.8Q170.13-17.55 171.43-17.6ZM166.68-16.4L166.68-16.4Q167.08-18.15 167.08-19.1L167.08-19.1Q167.08-21.2 165.68-21.2L165.68-21.2Q163.73-21.2 160.83-17.6 157.93-14 155.85-9.5 153.78-5 153.78-2.4L153.78-2.4Q153.78-0.5 155.13-0.5L155.13-0.5Q157.23-0.5 160.15-4.7 163.08-8.9 163.68-13.15L163.68-13.15Q163.63-13.25 163.63-13.45L163.63-13.45Q163.63-14.9 166.23-16.05L166.23-16.05Q166.63-16.2 166.68-16.4ZM179.52-10.35L179.52-10.35Q179.12-10.35 179.12-10.65L179.12-10.65Q179.12-10.8 179.27-11.05L179.27-11.05Q182.22-15.65 182.22-17.35L182.22-17.35Q182.22-17.8 181.87-17.8L181.87-17.8Q180.37-17.8 174.82-11L174.82-11Q173.17-8.9 171.75-6.65 170.32-4.4 169.77-3.2L169.77-3.2 169.17-2.05Q168.57-0.85 167.32 0.18 166.07 1.2 164.72 1.2L164.72 1.2Q164.02 1.2 164.02 0.85L164.02 0.85Q164.02 0.55 164.45-0.4 164.87-1.35 165.47-2.5 166.07-3.65 166.67-4.75 167.27-5.85 167.67-6.6L167.67-6.6 168.12-7.35 173.37-16.5Q176.42-22.25 179.77-22.25L179.77-22.25Q180.22-22.25 180.22-21.9L180.22-21.9Q180.22-21.45 178.05-18.18 175.87-14.9 175.52-14L175.52-14Q175.42-13.7 175.42-13.65L175.42-13.65Q175.42-13.55 175.52-13.55 175.62-13.55 175.87-13.8L175.87-13.8Q179.62-18.05 183.82-21.35L183.82-21.35Q184.07-21.6 184.92-22.08 185.77-22.55 186.42-22.55L186.42-22.55Q187.37-22.55 187.37-20.9L187.37-20.9Q187.37-19.1 186.17-16.6 184.97-14.1 182.92-12.2L182.92-12.2 182.72-12Q182.52-11.85 182.3-11.68 182.07-11.5 181.72-11.25 181.37-11 181.02-10.83 180.67-10.65 180.27-10.5 179.87-10.35 179.52-10.35ZM195.32-16.95L195.32-16.95Q195.92-18.2 195.92-19.15L195.92-19.15Q195.92-19.95 195.42-19.95L195.42-19.95Q195.12-19.95 194.75-19.78 194.37-19.6 194.17-19.4L194.17-19.4 193.92-19.2Q192.37-17.85 190.05-14.28 187.72-10.7 187.72-9.7L187.72-9.7Q187.72-9.5 187.82-9.5L187.82-9.5Q188.12-9.5 189.15-10 190.17-10.5 192.1-12.35 194.02-14.2 195.32-16.95ZM193.07-5.5L193.07-5.5Q195.72-7.95 200.67-13.6L200.67-13.6Q200.82-13.75 200.92-13.75 201.02-13.75 201.02-13.55L201.02-13.55Q201.02-12.6 200.27-11.7L200.27-11.7Q196.57-7.6 193.72-4.85L193.72-4.85Q191.62-2.75 188.72-0.83 185.82 1.1 183.92 1.1L183.92 1.1Q181.62 1.1 181.62-2.1L181.62-2.1Q181.62-7.4 185.55-13.2 189.47-19 194.62-21.05L194.62-21.05Q196.77-21.95 198.52-21.95L198.52-21.95Q200.47-21.95 200.47-20.4L200.47-20.4Q200.47-17.5 196.37-13.75 192.27-10 187.17-8.05L187.17-8.05Q186.97-8 186.82-7.7L186.82-7.7Q186.07-5.65 186.07-4.05L186.07-4.05Q186.07-2.25 187.42-2.25L187.42-2.25Q189.57-2.25 193.07-5.5Z" opacity="1" transform="matrix(1,0,0,1,0,0)" fill="#ffffff" class="wordmark-text-0" data-fill-palette-color="quaternary" id="text-0"></path></svg></g></svg></g></svg></g></svg></g><g transform="matrix(1,0,0,1,69.77816983609452,0)"><svg viewBox="0 0 73.60210155496806 108.86676427332347" height="108.86676427332347" width="73.60210155496806"><g><svg xmlns="http://www.w3.org/2000/svg" xmlns:xlink="http://www.w3.org/1999/xlink" version="1.1" x="0" y="0" viewBox="17.4 1.78 65.20000037880132 96.439" enable-background="new 0 0 100 100" xml:space="preserve" height="108.86676427332347" width="73.60210155496806" class="icon-icon-0" data-fill-palette-color="quaternary" id="icon-0"><path fill="#ffffff" d="M50 28.651c4.166 0 7.221-0.995 8.332-1.936l6.072-13.256c0-3.433-6.449-6.216-14.404-6.216s-14.403 2.783-14.403 6.216l6.14 13.312C42.903 27.695 45.917 28.651 50 28.651z" data-fill-palette-color="quaternary"></path><path fill="#ffffff" d="M50 4.512c8.516 0 17.137 3.073 17.137 8.947v0.595l-5.893 12.863c0.699 0.944 1.395 1.875 2.082 2.797 8.877 11.889 16.543 22.156 16.542 35.904 0 16.47-13.399 29.868-29.868 29.868S20.132 82.088 20.132 65.618c0-13.354 7.623-23.66 16.449-35.594 0.741-1.002 1.49-2.016 2.244-3.043l-5.96-12.923v-0.6C32.865 7.585 41.485 4.512 50 4.512M50 1.78c-9.568 0-19.866 3.655-19.866 11.679v0.6c0 0.395 0.085 0.785 0.251 1.144l5.285 11.458c-0.415 0.562-0.827 1.12-1.237 1.675L34.385 28.4C25.271 40.723 17.4 51.364 17.4 65.618c0 17.976 14.624 32.601 32.6 32.601 17.977 0 32.6-14.625 32.6-32.601 0.002-14.656-7.916-25.26-17.084-37.539l-0.062-0.083c-0.35-0.468-0.7-0.938-1.053-1.412l5.219-11.394c0.163-0.357 0.248-0.745 0.248-1.138v-0.595C69.867 5.435 59.568 1.78 50 1.78L50 1.78z" data-fill-palette-color="quaternary"></path><path fill="#ffffff" d="M59 28.473c-1.979 1.317-5.499 1.999-9 1.999-3.455 0-6.929-0.665-8.922-1.948-9.472 12.914-18.215 23.537-18.215 37.094 0 14.473 11.33 26.295 25.603 27.091v-8.375l-4.269-3.98v-4.109l5.8 5.009 5.805-5.009v4.109l-4.268 3.98v8.375c14.272-0.796 25.603-12.619 25.603-27.091C77.137 51.725 68.467 41.246 59 28.473zM42.625 48.188l6.06 5.105v5.616c0 0-4.735-4.181-5.663-5.106C42.096 52.876 42.625 48.188 42.625 48.188zM48.613 76.629c0 0-5.003-4.443-5.663-5.104-0.658-0.66-0.396-5.616-0.396-5.616l6.06 5.104L48.613 76.629 48.613 76.629zM48.706 67.855c0 0-4.748-4.189-5.663-5.104-0.913-0.914-0.396-5.615-0.396-5.615l6.06 5.104L48.706 67.855 48.706 67.855zM46.404 46.811l3.594-6.829 3.598 6.829-3.598 2.908L46.404 46.811zM56.9 71.525c-1.051 0.949-5.662 5.104-5.662 5.104v-5.615l6.059-5.104C57.297 65.909 57.953 70.576 56.9 71.525zM56.994 62.752c-0.824 0.824-5.662 5.104-5.662 5.104v-5.613l6.059-5.104C57.391 57.137 57.818 61.928 56.994 62.752zM56.973 53.803c-0.938 0.848-5.662 5.106-5.662 5.106v-5.616l6.06-5.105C57.369 48.188 57.914 52.954 56.973 53.803z" data-fill-palette-color="quaternary"></path></svg></g></svg></g><g></g></svg></g></svg></g></svg></g></svg></g><defs></defs></svg><rect width="333.90454557049503" height="333.90454557049503" fill="none" stroke="none" visibility="hidden"></rect></g></svg></g></svg>